<svg width="392" height="392" viewBox="0 0 392 392" fill="none" xmlns="http://www.w3.org/2000/svg">
<path d="M196.016 0.6875C88.1506 0.6875 0.687546 88.1505 0.687546 196.016C0.687546 303.882 88.1506 391.312 196.016 391.312C303.882 391.312 391.313 303.882 391.313 196.016C391.313 88.1505 303.882 0.6875 196.016 0.6875ZM208.966 22.2268C259.814 22.296 256.986 75.9144 256.667 104.81C256.461 123.743 266.912 136.518 277.617 150.02C287.18 161.322 299.688 177.875 306.86 196.836C312.704 212.286 315.01 229.367 309.221 246.537C310.955 247.195 312.645 248.207 314.302 249.651C314.313 249.66 314.326 249.643 314.335 249.651C318.5 253.197 319.825 258.677 320.991 263.749C322.157 268.824 323.24 273.57 325.515 276.141V276.174C332.44 283.861 335.447 289.6 335.154 294.73C334.86 299.862 331.079 303.382 326.4 306.204C317.042 311.849 302.905 316.123 294.403 326.432L292.763 325.088L294.403 326.465C285.482 337.081 274.456 343.186 264.077 344.005C253.711 344.823 243.97 340.048 238.735 329.58C238.724 329.565 238.746 329.529 238.735 329.514C238.036 328.175 237.481 326.783 237.128 325.318C223.625 326.068 211.906 321.971 202.508 322.728C188.655 323.491 179.999 326.853 172.117 326.892C169.072 333.585 163.162 337.91 155.856 339.579C145.78 341.881 133.136 339.602 120.679 333.088V333.055C109.042 326.887 94.2729 327.463 83.3701 325.186C77.9186 324.048 73.094 322.019 70.7481 317.449C68.4071 312.889 68.8326 306.605 72.1578 297.516C73.1981 294.278 72.4074 289.519 71.6333 284.468C70.8591 279.417 70.1148 273.958 72.6496 269.224C72.6496 269.215 72.6496 269.2 72.6496 269.191C75.4497 263.818 80.0865 261.617 84.288 260.11C88.488 258.603 92.2932 257.573 94.9757 254.897C97.8468 251.859 100.438 247.342 103.926 243.619C104.392 243.122 104.854 242.637 105.368 242.176C103.725 231.341 105.498 219.87 109.237 208.638C117.159 184.839 133.913 161.981 145.791 147.856C155.902 133.484 158.884 121.904 159.921 107.203C160.765 87.1011 145.685 27.0652 202.508 22.4889C204.756 22.3096 206.899 22.2268 208.966 22.2268ZM215.72 66.7479C212.775 66.7752 210.316 67.6783 207.786 69.6001C205.256 71.5218 203.435 73.8828 201.983 77.1733C200.531 80.4638 199.91 83.6932 199.951 87.4675V87.7626C199.975 88.8278 200.05 89.8244 200.18 90.8115C202.463 91.3549 204.877 92.2465 207.458 93.5326C207.281 92.5118 207.205 91.4672 207.229 90.3198C207.229 90.2369 207.247 90.1731 207.262 90.0903C207.331 88.0026 207.677 86.2211 208.409 84.4514C209.142 82.6817 210.04 81.4144 211.229 80.4189C212.362 79.4702 213.442 79.05 214.704 79.042C214.765 79.042 214.838 79.0332 214.901 79.042C216.242 79.0839 217.354 79.5889 218.474 80.6812C219.594 81.7735 220.39 83.0854 220.999 84.9104C221.579 86.6523 221.86 88.3617 221.818 90.3526C221.818 90.449 221.785 90.4993 221.785 90.582C221.716 92.6559 221.337 94.4048 220.605 96.1882C220.12 97.3689 219.562 98.3097 218.9 99.106C220.728 99.7401 222.926 100.537 225.785 101.762C226.197 101.931 226.615 102.102 226.998 102.286C228.125 100.922 229.062 99.3443 229.883 97.4668C231.32 94.1762 231.975 90.9607 231.948 87.1725C231.922 87.0755 231.915 86.9742 231.915 86.8774C231.846 83.1859 231.151 80.0909 229.686 76.911C228.192 73.6483 226.323 71.3026 223.751 69.4362C221.22 67.5989 218.768 66.7479 215.883 66.7479H215.72ZM175.887 69.8952C173.772 70.0058 172.023 70.8881 170.281 72.6163C168.539 74.3445 167.344 76.4337 166.445 79.337C165.546 82.2404 165.183 85.0571 165.363 88.3199V88.3528C165.557 91.6156 166.212 94.3739 167.428 97.1389C168.456 99.4735 169.66 101.236 171.166 102.647C171.857 102.138 172.437 101.701 172.936 101.335C173.714 100.764 174.151 100.427 175.1 99.6961C174.95 99.5902 174.794 99.4675 174.641 99.3355C173.729 98.5475 173.053 97.5277 172.444 96.0898C171.85 94.6934 171.496 93.323 171.33 91.664V91.4673C171.178 89.7529 171.266 88.2672 171.625 86.7463C171.984 85.2256 172.471 84.0664 173.231 83.1401C173.992 82.2137 174.821 81.7476 175.789 81.6648C175.879 81.656 175.962 81.6648 176.051 81.6648C176.91 81.656 177.683 81.9669 178.51 82.6811C179.422 83.4692 180.117 84.475 180.739 85.9267C181.32 87.3231 181.688 88.7074 181.854 90.3526C181.854 90.4218 181.838 90.4801 181.854 90.5493C181.972 91.788 181.943 92.8967 181.788 93.9917C183.373 92.9449 185.199 92.0137 187.263 91.3033C187.627 91.1783 187.999 91.0502 188.378 90.9427C188.486 89.6934 188.498 88.379 188.411 87.0086C188.231 83.7457 187.595 80.9875 186.378 78.2224C185.162 75.4573 183.678 73.4951 181.756 71.9606C179.984 70.5458 178.293 69.8952 176.379 69.8952C176.217 69.8952 176.052 69.8864 175.887 69.8952ZM194.312 92.4835C191.981 92.4933 189.916 92.9231 188.05 93.5654C182.629 95.4315 179.028 99.331 176.772 101.466C176.332 101.889 175.759 102.29 174.379 103.302C172.99 104.322 170.89 105.839 167.887 108.089C165.217 110.09 164.342 112.71 165.265 115.76C166.187 118.811 169.16 122.324 174.543 125.366V125.399C177.884 127.361 180.153 129.982 182.772 132.087C185.39 134.192 188.286 135.837 193.131 136.119C198.823 136.449 203.005 134.759 206.704 132.644C210.403 130.529 213.564 127.945 217.162 126.776V126.743C224.542 124.439 229.809 119.81 231.456 115.4C232.28 113.195 232.277 111.104 231.292 109.171C230.308 107.238 228.266 105.399 224.834 103.991C217.701 100.936 214.587 100.711 210.605 98.1224C204.124 93.9554 198.793 92.4986 194.344 92.5163L194.312 92.4835ZM225.457 110.941L225.588 113.334C224.494 113.399 222.589 114.211 220.342 115.465C218.096 116.719 215.448 118.377 212.54 120.055C206.722 123.412 199.839 126.809 192.541 126.809C185.254 126.809 179.505 123.469 175.362 120.186C173.291 118.545 171.58 116.913 170.314 115.728C169.681 115.135 169.157 114.647 168.773 114.351C168.536 114.168 168.322 114.115 168.281 114.088C168.256 114.072 168.316 114.081 168.379 113.466L168.445 111.63C169.319 111.63 169.725 112.014 170.248 112.416C170.77 112.819 171.339 113.352 171.985 113.957C173.277 115.167 174.911 116.732 176.87 118.285C180.788 121.39 186.003 124.415 192.541 124.415C199.069 124.415 205.62 121.25 211.327 117.957C214.179 116.311 216.821 114.641 219.162 113.334C221.503 112.027 223.537 111.056 225.457 110.941ZM231.948 119.662C229.127 123.688 224.152 127.121 217.916 129.071C214.965 130.034 211.849 132.513 207.95 134.743C204.045 136.975 199.254 138.94 193 138.578C187.642 138.266 184.102 136.27 181.264 133.988C178.43 131.711 176.242 129.212 173.33 127.497C172.334 126.931 170.111 125.412 169.461 124.94C168.2 148.721 152.332 178.581 144.742 195.787C139.531 208.187 136.387 221.441 136.021 234.44C122.321 216.174 132.341 192.747 137.693 182.608C143.665 171.518 144.586 168.492 143.135 169.559C137.748 178.347 129.341 192.339 126.055 206.737C124.343 214.238 123.997 221.84 126.219 228.866C128.44 235.891 133.208 242.373 141.693 247.652C153.243 254.735 161.083 261.827 165.724 268.109C170.363 274.391 171.829 279.88 170.379 283.78C169.654 285.73 168.203 287.227 166.117 288.173C164.44 288.933 162.362 289.353 159.921 289.353C161.162 290.912 162.41 292.483 163.626 294.074C165.528 296.566 167.358 299.098 168.969 301.647C192.749 317.876 220.751 311.649 240.931 297.254C242.936 290.364 244.93 283.836 245.226 279.026C245.71 269.462 246.225 260.951 247.979 253.913C249.736 246.87 252.883 241.145 258.667 237.98C259.595 237.473 260.501 237.054 261.421 236.734C261.486 236.14 261.577 235.54 261.684 234.964C263.343 223.973 273.166 223.447 285.485 228.866C297.362 234.24 301.824 238.927 299.812 245.291C299.884 245.282 299.969 245.291 300.041 245.291C300.822 245.275 301.621 245.261 302.434 245.291C304.905 237.262 299.772 231.37 285.878 224.604C284.945 224.162 284.032 223.768 283.124 223.391C284.979 215.854 284.59 208.231 282.862 200.967C279.072 185.035 268.636 170.905 260.7 163.888C259.236 163.827 259.386 165.12 262.339 167.986C269.653 174.717 285.649 198.887 276.994 221.326C274.52 220.693 272.207 220.376 270.109 220.441C266.799 202.15 259.142 186.966 255.291 179.821C248.045 166.353 236.795 138.768 231.948 119.662ZM271.551 229.03C267.738 229.048 265.109 231.029 264.568 235.62C263.559 242.38 266.59 251.326 272.797 252.93C278.881 254.589 287.771 248.294 289.845 244.34C292.306 239.101 289.483 235.519 280.469 231.358C277.12 229.859 274.077 229.018 271.551 229.03ZM261.323 241.39C261.117 241.492 260.908 241.604 260.7 241.718C256.226 244.166 253.714 248.53 252.11 254.963C250.507 261.395 249.971 269.742 249.488 279.289V279.321C249.031 286.772 245.634 295.9 243.259 304.828C240.884 313.756 239.685 322.216 242.505 327.58L242.538 327.613V327.645C247.083 336.767 254.781 340.481 263.716 339.776C272.651 339.071 282.804 333.613 291.124 323.711C300.706 312.105 315.704 307.672 324.171 302.565C328.406 300.011 330.71 297.668 330.891 294.501C331.073 291.333 328.919 286.369 322.302 279.026V278.994C318.86 275.12 317.942 269.692 316.794 264.7C315.647 259.707 314.332 255.256 311.549 252.897H311.516C307.893 249.729 304.366 249.451 300.139 249.553C299.227 249.575 298.281 249.613 297.32 249.652C292.501 255.192 281.107 261.999 273.191 259.913C265.957 258.088 261.832 249.657 261.323 241.39ZM115.924 242.013C112.107 242.039 109.57 243.835 107.04 246.537C104.041 249.739 101.468 254.249 98.0569 257.848V257.88H98.0237C94.3337 261.579 89.6704 262.695 85.7296 264.109C81.7887 265.523 78.6164 267.018 76.4516 271.191L76.4188 271.224C74.728 274.363 75.1354 278.861 75.8942 283.813C76.6531 288.764 77.7851 294.039 76.2221 298.861V298.894V298.959C73.0615 307.578 73.0627 312.618 74.5501 315.515C76.0373 318.413 79.2882 319.953 84.2543 320.99C94.1839 323.064 109.665 322.393 122.677 329.285C134.439 335.437 146.218 337.432 154.904 335.448C163.593 333.464 169.255 328.008 170.018 317.974V317.941V317.908C170.607 312.026 166.064 304.322 160.215 296.664C154.367 289.007 147.487 281.525 144.217 274.699V274.666C140.147 265.927 136.145 258.046 131.89 252.274C127.635 246.503 123.25 242.977 118.186 242.209C117.442 242.097 116.715 242.014 116.055 242.013L115.924 242.013Z" fill="white"/>
</svg>
