<?xml version="1.0" encoding="iso-8859-1"?>
<!-- Generator: Adobe Illustrator 19.0.0, SVG Export Plug-In . SVG Version: 6.00 Build 0)  -->
<svg version="1.1" id="Capa_1" xmlns="http://www.w3.org/2000/svg" xmlns:xlink="http://www.w3.org/1999/xlink" x="0px" y="0px"
	 viewBox="0 0 512 512" style="enable-background:new 0 0 512 512;" xml:space="preserve" fill="white">
<g>
	<g>
		<path d="M412.035,26h-0.269c-5.522,0-10,4.478-10,10s4.478,10,10,10h0.269c5.522,0,10-4.478,10-10S417.557,26,412.035,26z"/>
	</g>
</g>
<g>
	<g>
		<path d="M482,26h-30c-5.522,0-10,4.478-10,10s4.478,10,10,10h30c5.513,0,10,4.486,10,9.999H20C20.001,50.486,24.486,46,30,46
			h353.036c5.522,0,10-4.478,10-10s-4.478-10-10-10H30C13.458,26,0,39.458,0,56v320c0,16.542,13.458,30,30,30h173.192l-15,60
			h-23.226c-5.523,0-10,4.478-10,10c0,5.522,4.477,10,10,10h182.068c5.522,0,10-4.478,10-10c0-5.522-4.478-10-10-10h-23.227l-15-60
			H482c16.542,0,30-13.458,30-30V56C512,39.458,498.542,26,482,26z M208.808,466l15-60h64.384l15,60H208.808z M492,376
			c0,5.513-4.487,10-10,10H30c-5.514,0-10-4.486-10-10v-7.16h176.178l7.225,5.25c1.708,1.241,3.767,1.91,5.878,1.91h93.436
			c2.112,0,4.17-0.669,5.878-1.91l7.226-5.25H492V376z M492,348.84H312.572c-2.112,0-4.17,0.669-5.878,1.91l-7.226,5.25h-86.937
			l-7.225-5.25c-1.708-1.241-3.767-1.91-5.878-1.91H20V75.999h472V348.84z"/>
	</g>
</g>
<g>
	<g>
		<path d="M136.235,466h-0.27c-5.523,0-10,4.478-10,10c0,5.522,4.477,10,10,10h0.27c5.523,0,10-4.478,10-10
			C146.235,470.478,141.758,466,136.235,466z"/>
	</g>
</g>
<g>
	<g>
		<path d="M75.999,97.42c-16.542,0-30,13.458-30,30v10c0,16.542,13.458,30,30,30s30-13.458,30-30v-10
			C105.999,110.878,92.541,97.42,75.999,97.42z M85.999,137.42c0,5.514-4.486,10-10,10c-5.514,0-10-4.486-10-10v-10
			c0-5.514,4.486-10,10-10c5.514,0,10,4.486,10,10V137.42z"/>
	</g>
</g>
<g>
	<g>
		<path d="M125.999,97.42c-5.523,0-10,4.478-10,10v49.999c0,5.522,4.477,10,10,10s10-4.478,10-10V107.42
			C135.999,101.898,131.522,97.42,125.999,97.42z"/>
	</g>
</g>
<g>
	<g>
		<path d="M155.999,97.42c-5.523,0-10,4.478-10,10v49.999c0,5.522,4.477,10,10,10c5.523,0,10-4.478,10-10V107.42
			C165.999,101.898,161.522,97.42,155.999,97.42z"/>
	</g>
</g>
<g>
	<g>
		<path d="M206,97.42c-16.542,0-30,13.458-30,30v10c0,16.542,13.458,30,30,30s30-13.458,30-30v-10
			C236,110.878,222.542,97.42,206,97.42z M216,137.42c0,5.514-4.486,10-10,10c-5.514,0-10-4.486-10-10v-10c0-5.514,4.486-10,10-10
			c5.514,0,10,4.486,10,10V137.42z"/>
	</g>
</g>
<g>
	<g>
		<path d="M276,97.42c-16.542,0-30,13.458-30,30v10c0,16.542,13.458,30,30,30s30-13.458,30-30v-10
			C306,110.878,292.542,97.42,276,97.42z M286,137.42c0,5.514-4.486,10-10,10c-5.514,0-10-4.486-10-10v-10c0-5.514,4.486-10,10-10
			c5.514,0,10,4.486,10,10V137.42z"/>
	</g>
</g>
<g>
	<g>
		<path d="M326,97.42c-5.522,0-10,4.478-10,10v49.999c0,5.522,4.477,10,10,10c5.522,0,10-4.478,10-10V107.42
			C336,101.898,331.522,97.42,326,97.42z"/>
	</g>
</g>
<g>
	<g>
		<path d="M375.999,97.42c-16.542,0-30,13.458-30,30v10c0.001,16.542,13.459,30,30.001,30s29.999-13.458,29.999-30v-10
			C405.999,110.878,392.541,97.42,375.999,97.42z M385.999,137.42c0,5.514-4.486,10-10,10c-5.514,0-10-4.486-10-10v-10H366
			c0-5.514,4.486-10,10-10c5.514,0,9.999,4.486,9.999,10V137.42z"/>
	</g>
</g>
<g>
	<g>
		<path d="M426,97.42c-5.522,0-10,4.478-10,10v49.999c0,5.522,4.478,10,10,10c5.522,0,10-4.478,10-10V107.42
			C436,101.898,431.522,97.42,426,97.42z"/>
	</g>
</g>
<g>
	<g>
		<path d="M456,97.42c-5.522,0-10,4.478-10,10v49.999c0,5.522,4.478,10,10,10c5.522,0,10-4.478,10-10V107.42
			C466,101.898,461.522,97.42,456,97.42z"/>
	</g>
</g>
<g>
	<g>
		<path d="M436.001,177.42H436c-16.542,0-29.999,13.458-29.999,30v10c0,16.542,13.458,30,30,30S466,233.962,466,217.42v-10
			C466,190.878,452.543,177.42,436.001,177.42z M446,217.42c0,5.514-4.486,10-10,10c-5.514,0-9.999-4.486-9.999-10v-10
			c0-5.514,4.486-10,10-10c5.514,0,9.999,4.486,9.999,10V217.42z"/>
	</g>
</g>
<g>
	<g>
		<path d="M386.001,177.42c-5.522,0-10,4.477-10,10v49.999c0,5.522,4.478,10,10,10c5.522,0,10-4.478,10-10V187.42
			C396.001,181.898,391.523,177.42,386.001,177.42z"/>
	</g>
</g>
<g>
	<g>
		<path d="M356.001,177.42c-5.522,0-10,4.477-10,10v49.999c0,5.522,4.478,10,10,10c5.522,0,10-4.478,10-10V187.42
			C366.001,181.898,361.523,177.42,356.001,177.42z"/>
	</g>
</g>
<g>
	<g>
		<path d="M306,177.42c-16.542,0-30,13.458-30,30v10c0,16.542,13.458,30,30,30s30-13.458,30-30v-10
			C336,190.878,322.542,177.42,306,177.42z M316,217.42c0,5.514-4.486,10-10,10c-5.514,0-10-4.486-10-10v-10c0-5.514,4.486-10,10-10
			c5.514,0,10,4.486,10,10V217.42z"/>
	</g>
</g>
<g>
	<g>
		<path d="M236,177.42c-16.542,0-30,13.458-30,30v10c0,16.542,13.458,30,30,30s30-13.458,30-30v-10
			C266,190.878,252.542,177.42,236,177.42z M246,217.42c0,5.514-4.486,10-10,10c-5.514,0-10-4.486-10-10v-10c0-5.514,4.486-10,10-10
			c5.514,0,10,4.486,10,10V217.42z"/>
	</g>
</g>
<g>
	<g>
		<path d="M186,177.42c-5.523,0-10,4.477-10,10v49.999c0,5.522,4.477,10,10,10s10-4.478,10-10V187.42
			C196,181.898,191.523,177.42,186,177.42z"/>
	</g>
</g>
<g>
	<g>
		<path d="M136,177.42c-16.542,0-30,13.458-30,30v10c0,16.542,13.458,30,30,30s30-13.458,30-30v-10
			C166,190.878,152.542,177.42,136,177.42z M146,217.42c0,5.514-4.486,10-10,10c-5.514,0-10-4.486-10-10v-10c0-5.514,4.486-10,10-10
			c5.514,0,10,4.486,10,10V217.42z"/>
	</g>
</g>
<g>
	<g>
		<path d="M86,177.42c-5.523,0-10,4.478-10,10v49.999c0,5.522,4.477,10,10,10s10-4.478,10-10V187.42
			C96,181.898,91.523,177.42,86,177.42z"/>
	</g>
</g>
<g>
	<g>
		<path d="M56,177.42c-5.523,0-10,4.478-10,10v49.999c0,5.522,4.477,10,10,10s10-4.478,10-10V187.42
			C66,181.898,61.523,177.42,56,177.42z"/>
	</g>
</g>
<g>
	<g>
		<path d="M75.999,257.419c-16.542,0-30,13.458-30,30v10c0,16.542,13.458,30,30,30s30-13.458,30-30v-10
			C105.999,270.877,92.541,257.419,75.999,257.419z M85.999,297.419c0,5.514-4.486,10-10,10c-5.514,0-10-4.486-10-10v-10
			c0-5.514,4.486-10,10-10c5.514,0,10,4.486,10,10V297.419z"/>
	</g>
</g>
<g>
	<g>
		<path d="M125.999,257.419c-5.523,0-10,4.478-10,10v49.999c0,5.522,4.477,10,10,10s10-4.478,10-10v-49.999
			C135.999,261.896,131.521,257.419,125.999,257.419z"/>
	</g>
</g>
<g>
	<g>
		<path d="M155.999,257.419c-5.523,0-10,4.478-10,10v49.999c0,5.522,4.477,10,10,10c5.523,0,10-4.478,10-10v-49.999
			C165.999,261.896,161.522,257.419,155.999,257.419z"/>
	</g>
</g>
<g>
	<g>
		<path d="M206,257.419c-16.542,0-30,13.458-30,30v10c0,16.542,13.458,30,30,30s30-13.458,30-30v-10
			C236,270.877,222.542,257.419,206,257.419z M216,297.419c0,5.514-4.486,10-10,10c-5.514,0-10-4.487-10-10v-10
			c0-5.514,4.486-10,10-10c5.514,0,10,4.486,10,10V297.419z"/>
	</g>
</g>
<g>
	<g>
		<path d="M276,257.419c-16.542,0-30,13.458-30,30v10c0,16.542,13.458,30,30,30s30-13.458,30-30v-10
			C306,270.877,292.542,257.419,276,257.419z M286,297.419c0,5.514-4.486,10-10,10c-5.514,0-10-4.486-10-10v-10
			c0-5.514,4.486-10,10-10c5.514,0,10,4.486,10,10V297.419z"/>
	</g>
</g>
<g>
	<g>
		<path d="M326,257.419c-5.522,0-10,4.478-10,10v49.999c0,5.522,4.478,10,10,10c5.522,0,10-4.478,10-10v-49.999
			C336,261.896,331.522,257.419,326,257.419z"/>
	</g>
</g>
<g>
	<g>
		<path d="M375.999,257.419c-16.542,0-30,13.458-30,30v10c0.001,16.542,13.459,30,30.001,30s29.999-13.458,29.999-30v-10
			C405.999,270.877,392.541,257.419,375.999,257.419z M385.999,297.419c0,5.514-4.486,10-10,10c-5.514,0-10-4.486-10-10v-10H366
			c0-5.514,4.486-10,10-10c5.514,0,9.999,4.486,9.999,10V297.419z"/>
	</g>
</g>
<g>
	<g>
		<path d="M426,257.419c-5.522,0-10,4.478-10,10v49.999c0,5.522,4.478,10,10,10c5.522,0,10-4.478,10-10v-49.999
			C436,261.896,431.523,257.419,426,257.419z"/>
	</g>
</g>
<g>
	<g>
		<path d="M456,257.419c-5.522,0-10,4.478-10,10v49.999c0,5.522,4.478,10,10,10c5.522,0,10-4.478,10-10v-49.999
			C466,261.896,461.523,257.419,456,257.419z"/>
	</g>
</g>
<g>
</g>
<g>
</g>
<g>
</g>
<g>
</g>
<g>
</g>
<g>
</g>
<g>
</g>
<g>
</g>
<g>
</g>
<g>
</g>
<g>
</g>
<g>
</g>
<g>
</g>
<g>
</g>
<g>
</g>
</svg>
