<?xml version="1.0" encoding="iso-8859-1"?>
<!-- Generator: Adobe Illustrator 19.0.0, SVG Export Plug-In . SVG Version: 6.00 Build 0)  -->
<svg version="1.1" id="Capa_1" xmlns="http://www.w3.org/2000/svg" xmlns:xlink="http://www.w3.org/1999/xlink" x="0px" y="0px"
	 viewBox="0 0 512.003 512.003" style="enable-background:new 0 0 512.003 512.003;" xml:space="preserve" fill="white">
<g>
	<g>
		<path d="M102.457,446.001h-0.27c-5.522,0-10,4.478-10,10c0,5.522,4.478,10,10,10h0.27c5.522,0,10-4.478,10-10
			C112.457,450.479,107.979,446.001,102.457,446.001z"/>
	</g>
</g>
<g>
	<g>
		<path d="M479.779,46.001H32.223C14.455,46.001,0,60.456,0,78.224v355.555c0,17.768,14.455,32.223,32.223,32.223h30
			c5.522,0,10-4.478,10-10c0-5.522-4.478-10-10-10h-30c-6.739,0-12.223-5.483-12.223-12.223V126.001h127.373
			c2.652,0,5.196-1.054,7.071-2.929L171.516,106h231.521c5.522,0,10-4.478,10-10c0-5.522-4.478-10-10-10H167.373
			c-0.056,0-0.109,0.007-0.165,0.008c-0.273,0.004-0.546,0.015-0.818,0.041c-0.163,0.016-0.322,0.046-0.482,0.07
			c-0.162,0.024-0.325,0.042-0.487,0.074c-0.174,0.034-0.342,0.082-0.512,0.125c-0.146,0.037-0.293,0.069-0.438,0.113
			c-0.163,0.049-0.32,0.11-0.479,0.167c-0.15,0.053-0.3,0.103-0.447,0.164c-0.144,0.06-0.282,0.13-0.422,0.196
			c-0.156,0.073-0.313,0.143-0.466,0.225c-0.129,0.069-0.251,0.148-0.377,0.223c-0.155,0.092-0.312,0.18-0.464,0.281
			c-0.132,0.088-0.256,0.187-0.383,0.282c-0.135,0.1-0.272,0.194-0.402,0.301c-0.206,0.169-0.401,0.351-0.593,0.536
			c-0.044,0.043-0.093,0.08-0.137,0.124l-17.071,17.072H20V78.224c0-6.739,5.483-12.223,12.223-12.223H479.78
			c6.739,0,12.223,5.483,12.223,12.223V86h-20c-5.522,0-10,4.478-10,10c0,5.522,4.478,10,10,10h20v327.778
			c0,6.739-5.483,12.223-12.223,12.223H131.188c-5.522,0-10,4.478-10,10c0,5.522,4.478,10,10,10H479.78
			c17.768,0,32.223-14.455,32.223-32.223V78.224C512.002,60.456,497.547,46.001,479.779,46.001z"/>
	</g>
</g>
<g>
	<g>
		<path d="M44.77,76.001H44.5c-5.522,0-10,4.478-10,10c0,5.522,4.478,10,10,10h0.27c5.522,0,10-4.478,10-10
			C54.77,80.479,50.292,76.001,44.77,76.001z"/>
	</g>
</g>
<g>
	<g>
		<path d="M84.77,76.001h-0.269c-5.522,0-10,4.478-10,10c0,5.522,4.478,10,10,10h0.269c5.522,0,10-4.478,10-10
			C94.77,80.479,90.292,76.001,84.77,76.001z"/>
	</g>
</g>
<g>
	<g>
		<path d="M124.771,76.001h-0.27c-5.522,0-10,4.478-10,10c0,5.522,4.478,10,10,10h0.27c5.522,0,10-4.478,10-10
			C134.771,80.479,130.293,76.001,124.771,76.001z"/>
	</g>
</g>
<g>
	<g>
		<path d="M432.037,86h-0.27c-5.522,0-10,4.478-10,10c0,5.522,4.478,10,10,10h0.27c5.522,0,10-4.478,10-10
			C442.037,90.478,437.559,86,432.037,86z"/>
	</g>
</g>
<g>
	<g>
		<path d="M256.001,156.001c-71.683,0-130,58.317-130,130s58.317,130,130,130s130.001-58.317,130.001-130
			S327.684,156.001,256.001,156.001z M256.001,396.001c-60.654,0-110-49.346-110-110s49.346-110,110-110
			c60.654,0,110.001,49.346,110.001,110S316.655,396.001,256.001,396.001z"/>
	</g>
</g>
<g>
	<g>
		<path d="M323.177,236.502c-9.745-9.746-25.605-9.746-35.354,0l-45.962,45.963l-17.678-17.678
			c-4.711-4.71-10.988-7.305-17.678-7.305c-6.688,0-12.967,2.595-17.677,7.305c0,0,0,0-0.001,0
			c-4.71,4.71-7.305,10.988-7.305,17.677c0,6.69,2.595,12.968,7.305,17.678l35.355,35.355c4.873,4.875,11.275,7.313,17.678,7.312
			c6.401,0,12.804-2.437,17.678-7.31l63.64-63.64c4.71-4.711,7.305-10.988,7.305-17.679
			C330.483,247.491,327.888,241.213,323.177,236.502z M309.033,257.717l-63.639,63.64c-1.885,1.883-5.188,1.884-7.071-0.001
			L202.968,286c-1.258-1.258-1.445-2.755-1.445-3.535c-0.001-0.779,0.187-2.277,1.445-3.534c0.958-0.959,2.247-1.438,3.535-1.438
			c1.289,0,2.578,0.479,3.536,1.438l24.749,24.749c1.876,1.875,4.419,2.929,7.071,2.929s5.196-1.054,7.071-2.929l53.032-53.034
			c1.917-1.917,5.155-1.914,7.072,0.001c1.258,1.258,1.445,2.755,1.445,3.535C310.479,254.962,310.291,256.458,309.033,257.717z"/>
	</g>
</g>
<g>
</g>
<g>
</g>
<g>
</g>
<g>
</g>
<g>
</g>
<g>
</g>
<g>
</g>
<g>
</g>
<g>
</g>
<g>
</g>
<g>
</g>
<g>
</g>
<g>
</g>
<g>
</g>
<g>
</g>
</svg>
